<svg width="42" height="47" viewBox="0 0 42 47" fill="none" xmlns="http://www.w3.org/2000/svg">
<path d="M9.98457 39.9164L3.09585 14.2032C2.89017 13.4357 2.83769 12.6352 2.94141 11.8474C3.04513 11.0596 3.30301 10.3 3.70033 9.61186C4.09765 8.92374 4.62663 8.32063 5.25705 7.83696C5.88747 7.35329 6.607 6.99854 7.37453 6.79296L19.919 3.43149C20.7855 3.19946 21.6927 3.16301 22.575 3.32479C23.4573 3.48656 24.2926 3.8425 25.0205 4.36685L31.6442 9.1368C32.7762 9.95179 33.5917 11.1329 33.9529 12.4801L39.2033 32.0875C39.6187 33.6374 39.4014 35.2888 38.5992 36.6785C37.7971 38.0682 36.4757 39.0823 34.9258 39.4978L17.3936 44.1951C16.6261 44.4008 15.8256 44.4533 15.0378 44.3496C14.25 44.2458 13.4904 43.988 12.8023 43.5906C12.1141 43.1933 11.511 42.6643 11.0274 42.0339C10.5437 41.4035 10.1901 40.684 9.98457 39.9164Z" fill="#04A2E9"/>
<path d="M18.2153 26.8069C18.2857 26.639 18.3932 26.4892 18.5296 26.3686C18.6661 26.248 18.828 26.1598 19.0032 26.1105C19.1785 26.0612 19.3627 26.052 19.542 26.0838C19.7213 26.1156 19.8911 26.1874 20.0388 26.2939L20.3461 26.5153C20.4937 26.6219 20.6635 26.6937 20.8427 26.7256C21.0219 26.7574 21.2061 26.7484 21.3813 26.6992C21.5566 26.65 21.7185 26.5619 21.855 26.4414C21.9915 26.321 22.099 26.1713 22.1696 26.0035L22.8945 24.278C22.9665 24.1066 23.077 23.9541 23.2175 23.8324C23.358 23.7106 23.5246 23.6229 23.7045 23.5759C23.8844 23.529 24.0727 23.5242 24.2547 23.5618C24.4368 23.5993 24.6077 23.6784 24.7543 23.7927L26.7387 25.3416C26.916 25.48 27.0512 25.6651 27.1292 25.8761C27.2071 26.0871 27.2247 26.3156 27.18 26.536C27.1352 26.7565 27.0299 26.9601 26.8759 27.124C26.7219 27.2879 26.5252 27.4056 26.308 27.464L19.2631 29.3516C19.0445 29.4103 18.8138 29.4064 18.5973 29.3404C18.3807 29.2745 18.187 29.1491 18.0382 28.9786C17.8893 28.8081 17.7913 28.5992 17.7552 28.3757C17.7191 28.1523 17.7465 27.9232 17.8341 27.7145L18.2153 26.8069Z" fill="white"/>
<path d="M7.23438 35.2456V8.62484C7.23438 7.1807 7.80806 5.7957 8.82922 4.77454C9.85039 3.75337 11.2354 3.17969 12.6795 3.17969H25.6668C26.474 3.17967 27.2712 3.35912 28.0005 3.70506C28.7298 4.05099 29.3731 4.55475 29.8838 5.17987L35.047 11.5023C35.8411 12.4744 36.275 13.6909 36.2752 14.9461V35.2456C36.2752 36.6897 35.7015 38.0747 34.6804 39.0959C33.6592 40.1171 32.2742 40.6908 30.83 40.6908H12.6795C11.2354 40.6908 9.85039 40.1171 8.82922 39.0959C7.80806 38.0747 7.23438 36.6897 7.23438 35.2456Z" fill="#04A2E9" fill-opacity="0.41" stroke="white" stroke-width="1.21003"/>
<path d="M17.9709 24.711C18.0824 24.5669 18.225 24.4499 18.388 24.3686C18.551 24.2873 18.7303 24.2438 18.9125 24.2415C19.0947 24.2392 19.275 24.278 19.4401 24.3551C19.6052 24.4322 19.7507 24.5456 19.8658 24.6868L20.1042 24.9821C20.2193 25.1233 20.3648 25.2367 20.5299 25.3138C20.695 25.3909 20.8753 25.4297 21.0575 25.4274C21.2397 25.4251 21.419 25.3817 21.582 25.3004C21.745 25.2191 21.8876 25.102 21.9991 24.9579L23.145 23.4792C23.2589 23.3322 23.4051 23.2133 23.5724 23.132C23.7396 23.0506 23.9234 23.0089 24.1094 23.01C24.2954 23.0112 24.4786 23.0552 24.6448 23.1387C24.811 23.2222 24.9557 23.3428 25.0678 23.4913L26.5839 25.5C26.7197 25.6797 26.8027 25.8937 26.8235 26.1179C26.8443 26.3422 26.8021 26.5678 26.7016 26.7694C26.6011 26.971 26.4464 27.1405 26.2548 27.259C26.0632 27.3774 25.8423 27.4399 25.6171 27.4397H18.3242C18.0981 27.4395 17.8765 27.3759 17.6846 27.2561C17.4927 27.1364 17.3382 26.9652 17.2387 26.7621C17.1392 26.559 17.0985 26.3321 17.1215 26.1071C17.1444 25.8821 17.2299 25.668 17.3683 25.4891L17.9709 24.711Z" fill="#D9D9D9"/>
</svg>
