<svg width="16" height="16" viewBox="0 0 16 16" fill="none" xmlns="http://www.w3.org/2000/svg">
<path d="M8.00016 14.6667C4.31816 14.6667 1.3335 11.682 1.3335 8.00004C1.3335 4.31804 4.31816 1.33337 8.00016 1.33337C11.6822 1.33337 14.6668 4.31804 14.6668 8.00004C14.6668 11.682 11.6822 14.6667 8.00016 14.6667ZM8.00016 13.3334C9.41465 13.3334 10.7712 12.7715 11.7714 11.7713C12.7716 10.7711 13.3335 9.41453 13.3335 8.00004C13.3335 6.58555 12.7716 5.229 11.7714 4.2288C10.7712 3.22861 9.41465 2.66671 8.00016 2.66671C6.58567 2.66671 5.22912 3.22861 4.22893 4.2288C3.22873 5.229 2.66683 6.58555 2.66683 8.00004C2.66683 9.41453 3.22873 10.7711 4.22893 11.7713C5.22912 12.7715 6.58567 13.3334 8.00016 13.3334ZM8.00016 11.3334C7.82335 11.3334 7.65378 11.2631 7.52876 11.1381C7.40373 11.0131 7.3335 10.8435 7.3335 10.6667C7.3335 10.4899 7.40373 10.3203 7.52876 10.1953C7.65378 10.0703 7.82335 10 8.00016 10C8.17697 10 8.34654 10.0703 8.47157 10.1953C8.59659 10.3203 8.66683 10.4899 8.66683 10.6667C8.66683 10.8435 8.59659 11.0131 8.47157 11.1381C8.34654 11.2631 8.17697 11.3334 8.00016 11.3334ZM8.85083 9.18804C8.7115 9.29696 8.53462 9.34606 8.35908 9.32456C8.18355 9.30305 8.02374 9.2127 7.91483 9.07337C7.80591 8.93405 7.75681 8.75716 7.77831 8.58162C7.79981 8.40609 7.89017 8.24629 8.0295 8.13737L8.29216 7.93204C8.39612 7.85136 8.48314 7.75095 8.54821 7.63657C8.61329 7.5222 8.65516 7.3961 8.6714 7.26551C8.68765 7.13492 8.67797 7.00241 8.6429 6.87557C8.60783 6.74874 8.54808 6.63007 8.46706 6.52637C8.38604 6.42267 8.28535 6.33599 8.17076 6.27128C8.05618 6.20657 7.92994 6.16512 7.7993 6.1493C7.66866 6.13347 7.53618 6.14359 7.40946 6.17907C7.28274 6.21454 7.16426 6.27468 7.06083 6.35604L6.79816 6.56137C6.72948 6.61824 6.65009 6.66074 6.56469 6.68638C6.47929 6.71202 6.38962 6.72026 6.30097 6.71063C6.21233 6.70099 6.12652 6.67367 6.04862 6.63029C5.97072 6.5869 5.90232 6.52833 5.84746 6.45803C5.7926 6.38774 5.7524 6.30716 5.72924 6.22106C5.70607 6.13495 5.70042 6.04508 5.7126 5.95675C5.72479 5.86842 5.75457 5.78343 5.80018 5.70682C5.8458 5.6302 5.90632 5.56352 5.97816 5.51071L6.24016 5.30537C6.72781 4.92435 7.34684 4.75264 7.96109 4.82803C8.57533 4.90342 9.13447 5.21973 9.5155 5.70737C9.89652 6.19502 10.0682 6.81405 9.99284 7.4283C9.91745 8.04254 9.60114 8.60168 9.1135 8.98271L8.85083 9.18804Z" fill="#535353"/>
</svg>
