<svg width="15" height="15" viewBox="0 0 15 15" fill="none" xmlns="http://www.w3.org/2000/svg">
<path d="M7.43708 10.1615C6.89825 10.1615 6.37152 10.0017 5.9235 9.70232C5.47548 9.40296 5.12629 8.97747 4.92008 8.47966C4.71388 7.98184 4.65993 7.43406 4.76505 6.90558C4.87017 6.3771 5.12964 5.89167 5.51066 5.51066C5.89167 5.12964 6.3771 4.87017 6.90558 4.76505C7.43406 4.65993 7.98184 4.71388 8.47966 4.92008C8.97747 5.12629 9.40296 5.47548 9.70232 5.9235C10.0017 6.37152 10.1615 6.89825 10.1615 7.43708C10.1615 8.98335 8.98335 10.1615 7.43708 10.1615ZM7.43708 6.47987C6.92166 6.47987 6.47987 6.92166 6.47987 7.43708C6.47987 7.9525 6.92166 8.3943 7.43708 8.3943C7.9525 8.3943 8.3943 7.9525 8.3943 7.43708C8.3943 6.92166 7.9525 6.47987 7.43708 6.47987ZM7.43708 14.8739C6.40624 14.8739 5.59629 14.2112 5.37539 13.1804C5.37539 13.0331 5.22813 12.9595 5.15449 12.9595C5.08086 12.9595 4.9336 12.8858 4.85997 12.9595C3.97639 13.5485 2.94554 13.4013 2.20922 12.6649C1.4729 11.9286 1.39927 10.8241 1.91469 10.0142C1.98833 9.86693 1.98833 9.7933 1.91469 9.71967L1.6938 9.49877C1.21297 9.41157 0.778747 9.15642 0.468569 8.77881C0.15839 8.4012 -0.00757724 7.92569 0.000265773 7.43708C0.000265773 6.40624 0.662952 5.59629 1.6938 5.37539C1.84106 5.37539 1.91469 5.22813 1.91469 5.15449C1.91469 5.08086 1.98833 4.9336 1.91469 4.85997C1.32564 3.97639 1.4729 2.94554 2.20922 2.20922C2.94554 1.4729 4.05002 1.39927 4.85997 1.91469C5.00723 1.98833 5.08086 1.98833 5.15449 1.91469L5.37539 1.6938C5.46259 1.21297 5.71775 0.778747 6.09536 0.468569C6.47296 0.15839 6.94847 -0.00757724 7.43708 0.000265773C8.46793 0.000265773 9.27788 0.662952 9.49877 1.6938C9.49877 1.84106 9.64604 1.91469 9.71967 1.91469C9.7933 1.91469 9.94056 1.98833 10.0142 1.91469C10.8978 1.32564 11.9286 1.4729 12.6649 2.20922C13.4013 2.94554 13.4749 4.05002 12.9595 4.85997C12.8858 5.00723 12.8858 5.08086 12.9595 5.15449L13.1804 5.37539C14.2112 5.59629 14.8739 6.40624 14.8739 7.43708C14.8739 8.46793 14.2112 9.27788 13.1804 9.49877C13.0331 9.49877 12.9595 9.64604 12.9595 9.71967C12.9595 9.7933 12.8858 9.94056 12.9595 10.0142C13.5485 10.8241 13.4013 11.9286 12.6649 12.6649C11.9286 13.4013 10.8241 13.4749 10.0142 12.9595C9.86693 12.8858 9.7933 12.8858 9.71967 12.9595L9.49877 13.1804C9.39849 13.6548 9.1397 14.081 8.76499 14.3888C8.39028 14.6966 7.92196 14.8677 7.43708 14.8739ZM5.00723 11.1187L5.81718 11.2659C6.47987 11.5605 6.92166 12.0759 7.06892 12.8122C7.14255 13.0331 7.28982 13.1067 7.43708 13.1067C7.58435 13.1067 7.73161 13.0331 7.80524 12.8122C7.87842 12.4745 8.02979 12.1587 8.24719 11.8902C8.46458 11.6216 8.74194 11.4078 9.05698 11.2659C9.71967 10.9714 10.456 11.045 11.045 11.4868C11.2659 11.6341 11.4132 11.5605 11.4868 11.4132C11.5605 11.3396 11.6341 11.1923 11.5605 10.9714C11.1923 10.3824 11.1187 9.64604 11.3396 8.98335C11.6341 8.32066 12.1495 7.87887 12.8858 7.73161C13.1067 7.65798 13.1804 7.51071 13.1804 7.36345C13.1804 7.21619 13.1067 7.06892 12.8858 6.99529C12.5482 6.92211 12.2324 6.77074 11.9638 6.55335C11.6953 6.33595 11.4815 6.05859 11.3396 5.74355C11.045 5.22813 11.1187 4.41818 11.4868 3.90275C11.6341 3.68186 11.5605 3.53459 11.4132 3.46096C11.3396 3.38733 11.1923 3.3137 10.9714 3.38733C10.456 3.75549 9.64604 3.82912 9.05698 3.60823C8.46793 3.38733 7.9525 2.79828 7.80524 2.06196C7.73161 1.84106 7.58435 1.76743 7.43708 1.76743C7.28982 1.76743 7.14255 1.84106 7.06892 2.06196C6.99574 2.39963 6.84438 2.71544 6.62698 2.98398C6.40958 3.25253 6.13222 3.46634 5.81718 3.60823C5.50212 3.71844 5.16619 3.75582 4.83461 3.71756C4.50303 3.6793 4.18443 3.56639 3.90275 3.38733C3.68186 3.24007 3.53459 3.3137 3.46096 3.46096C3.3137 3.53459 3.24007 3.68186 3.38733 3.90275C3.75549 4.41818 3.82912 5.22813 3.60823 5.81718C3.3137 6.47987 2.79828 6.92166 2.06196 7.06892C1.84106 7.14255 1.76743 7.28982 1.76743 7.43708C1.76743 7.58435 1.84106 7.73161 2.06196 7.80524C2.39963 7.87842 2.71544 8.02979 2.98398 8.24719C3.25253 8.46458 3.46634 8.74194 3.60823 9.05698C3.71844 9.37204 3.75582 9.70798 3.71756 10.0396C3.6793 10.3711 3.56639 10.6897 3.38733 10.9714C3.24007 11.1923 3.3137 11.3396 3.46096 11.4132C3.53459 11.4868 3.68186 11.5605 3.90275 11.4868C4.19728 11.2659 4.63907 11.1187 5.00723 11.1187Z" fill="#535353"/>
</svg>
